<mxfile host="app.diagrams.net" modified="2021-01-31T23:44:11.276Z" agent="5.0 (Macintosh; Intel Mac OS X 10_15_7) AppleWebKit/605.1.15 (KHTML, like Gecko) Version/14.0.2 Safari/605.1.15" etag="vdVkG19Gj-k0Mw_tViCw" version="14.1.9" type="github">
  <diagram id="Y7vgxa4DhB0pr9qEd363" name="Page-1">
    <mxGraphModel dx="860" dy="608" grid="1" gridSize="10" guides="1" tooltips="1" connect="1" arrows="1" fold="1" page="1" pageScale="1" pageWidth="850" pageHeight="1100" math="0" shadow="0">
      <root>
        <mxCell id="0" />
        <mxCell id="1" parent="0" />
        <mxCell id="BiXXx1ukzyLKqdQWHbCL-1" value="RPi" style="rounded=0;whiteSpace=wrap;html=1;" vertex="1" parent="1">
          <mxGeometry x="395" y="340" width="76" height="60" as="geometry" />
        </mxCell>
        <mxCell id="BiXXx1ukzyLKqdQWHbCL-2" value="USB isorator &amp;amp; reclocker" style="rounded=0;whiteSpace=wrap;html=1;" vertex="1" parent="1">
          <mxGeometry x="532" y="340" width="99" height="60" as="geometry" />
        </mxCell>
        <mxCell id="BiXXx1ukzyLKqdQWHbCL-3" value="DAC" style="rounded=0;whiteSpace=wrap;html=1;" vertex="1" parent="1">
          <mxGeometry x="692" y="340" width="69" height="60" as="geometry" />
        </mxCell>
        <mxCell id="BiXXx1ukzyLKqdQWHbCL-4" value="Optical&lt;br&gt;-&amp;gt;&lt;br&gt;Ethernet" style="rounded=0;whiteSpace=wrap;html=1;" vertex="1" parent="1">
          <mxGeometry x="262" y="340" width="69" height="60" as="geometry" />
        </mxCell>
        <mxCell id="BiXXx1ukzyLKqdQWHbCL-5" value="Ethernet&lt;br&gt;-&amp;gt;&lt;br&gt;Optical" style="rounded=0;whiteSpace=wrap;html=1;" vertex="1" parent="1">
          <mxGeometry x="127" y="340" width="80" height="60" as="geometry" />
        </mxCell>
        <mxCell id="BiXXx1ukzyLKqdQWHbCL-6" value="LAN Switch" style="rounded=0;whiteSpace=wrap;html=1;" vertex="1" parent="1">
          <mxGeometry x="10" y="340" width="72" height="60" as="geometry" />
        </mxCell>
        <mxCell id="BiXXx1ukzyLKqdQWHbCL-7" value="&lt;font color=&quot;#ff0000&quot;&gt;ETH&lt;/font&gt;" style="endArrow=none;html=1;exitX=1;exitY=0.5;exitDx=0;exitDy=0;entryX=0;entryY=0.5;entryDx=0;entryDy=0;" edge="1" parent="1" source="BiXXx1ukzyLKqdQWHbCL-6" target="BiXXx1ukzyLKqdQWHbCL-5">
          <mxGeometry width="50" height="50" relative="1" as="geometry">
            <mxPoint x="440" y="400" as="sourcePoint" />
            <mxPoint x="490" y="350" as="targetPoint" />
          </mxGeometry>
        </mxCell>
        <mxCell id="BiXXx1ukzyLKqdQWHbCL-10" value="ETH" style="endArrow=none;html=1;exitX=1;exitY=0.5;exitDx=0;exitDy=0;entryX=0;entryY=0.5;entryDx=0;entryDy=0;" edge="1" parent="1" source="BiXXx1ukzyLKqdQWHbCL-4" target="BiXXx1ukzyLKqdQWHbCL-1">
          <mxGeometry width="50" height="50" relative="1" as="geometry">
            <mxPoint x="385" y="371" as="sourcePoint" />
            <mxPoint x="423" y="371" as="targetPoint" />
          </mxGeometry>
        </mxCell>
        <mxCell id="BiXXx1ukzyLKqdQWHbCL-13" value="&lt;font color=&quot;#ff0000&quot;&gt;USB&lt;/font&gt;" style="endArrow=none;html=1;exitX=1;exitY=0.5;exitDx=0;exitDy=0;entryX=0;entryY=0.5;entryDx=0;entryDy=0;" edge="1" parent="1" target="BiXXx1ukzyLKqdQWHbCL-2">
          <mxGeometry width="50" height="50" relative="1" as="geometry">
            <mxPoint x="471" y="369.58" as="sourcePoint" />
            <mxPoint x="514" y="369.58" as="targetPoint" />
          </mxGeometry>
        </mxCell>
        <mxCell id="BiXXx1ukzyLKqdQWHbCL-14" value="&lt;font color=&quot;#67ab9f&quot;&gt;USB&lt;br&gt;/&lt;br&gt;i2s&lt;br&gt;/ &lt;br&gt;SPDIF..&lt;br&gt;&lt;/font&gt;" style="endArrow=none;html=1;exitX=1;exitY=0.5;exitDx=0;exitDy=0;entryX=0;entryY=0.5;entryDx=0;entryDy=0;fontStyle=1" edge="1" parent="1">
          <mxGeometry width="50" height="50" relative="1" as="geometry">
            <mxPoint x="631" y="369.7899999999999" as="sourcePoint" />
            <mxPoint x="692" y="370.21" as="targetPoint" />
          </mxGeometry>
        </mxCell>
        <mxCell id="BiXXx1ukzyLKqdQWHbCL-15" value="" style="endArrow=none;dashed=1;html=1;dashPattern=1 3;strokeWidth=3;fillColor=#f8cecc;strokeColor=#b85450;" edge="1" parent="1">
          <mxGeometry width="50" height="50" relative="1" as="geometry">
            <mxPoint x="230" y="430" as="sourcePoint" />
            <mxPoint x="230" y="285" as="targetPoint" />
          </mxGeometry>
        </mxCell>
        <mxCell id="BiXXx1ukzyLKqdQWHbCL-11" value="&lt;font color=&quot;#67ab9f&quot;&gt;Optical&lt;/font&gt;" style="endArrow=none;html=1;exitX=1;exitY=0.5;exitDx=0;exitDy=0;entryX=0;entryY=0.5;entryDx=0;entryDy=0;fontStyle=1;labelBackgroundColor=#ffffff;" edge="1" parent="1" target="BiXXx1ukzyLKqdQWHbCL-4">
          <mxGeometry width="50" height="50" relative="1" as="geometry">
            <mxPoint x="207" y="369.83" as="sourcePoint" />
            <mxPoint x="250" y="369.83" as="targetPoint" />
          </mxGeometry>
        </mxCell>
        <mxCell id="BiXXx1ukzyLKqdQWHbCL-16" value="&lt;font color=&quot;#cc0000&quot;&gt;Ground Noise Barrier&lt;/font&gt;" style="text;html=1;resizable=0;autosize=1;align=center;verticalAlign=middle;points=[];fillColor=none;strokeColor=none;rounded=0;rotation=0;" vertex="1" parent="1">
          <mxGeometry x="170" y="430" width="130" height="20" as="geometry" />
        </mxCell>
        <mxCell id="BiXXx1ukzyLKqdQWHbCL-19" value="" style="endArrow=none;dashed=1;html=1;dashPattern=1 3;strokeWidth=3;fillColor=#f8cecc;strokeColor=#b85450;" edge="1" parent="1">
          <mxGeometry width="50" height="50" relative="1" as="geometry">
            <mxPoint x="580" y="432.5" as="sourcePoint" />
            <mxPoint x="580" y="287.5" as="targetPoint" />
          </mxGeometry>
        </mxCell>
        <mxCell id="BiXXx1ukzyLKqdQWHbCL-20" value="&lt;font color=&quot;#cc0000&quot;&gt;Ground Noise Barrier&lt;/font&gt;" style="text;html=1;resizable=0;autosize=1;align=center;verticalAlign=middle;points=[];fillColor=none;strokeColor=none;rounded=0;rotation=0;" vertex="1" parent="1">
          <mxGeometry x="520" y="432.5" width="130" height="20" as="geometry" />
        </mxCell>
        <mxCell id="BiXXx1ukzyLKqdQWHbCL-21" value="" style="endArrow=classic;html=1;labelBackgroundColor=#ffffff;strokeWidth=3;strokeColor=#CC0000;" edge="1" parent="1">
          <mxGeometry width="50" height="50" relative="1" as="geometry">
            <mxPoint x="30" y="300" as="sourcePoint" />
            <mxPoint x="220" y="300" as="targetPoint" />
          </mxGeometry>
        </mxCell>
        <mxCell id="BiXXx1ukzyLKqdQWHbCL-22" value="LAN ground noise" style="edgeLabel;html=1;align=center;verticalAlign=middle;resizable=0;points=[];" vertex="1" connectable="0" parent="BiXXx1ukzyLKqdQWHbCL-21">
          <mxGeometry x="-0.4048" relative="1" as="geometry">
            <mxPoint x="-10.83" y="-10" as="offset" />
          </mxGeometry>
        </mxCell>
        <mxCell id="BiXXx1ukzyLKqdQWHbCL-23" value="" style="endArrow=classic;html=1;labelBackgroundColor=#ffffff;strokeWidth=3;strokeColor=#CC0000;" edge="1" parent="1">
          <mxGeometry width="50" height="50" relative="1" as="geometry">
            <mxPoint x="430" y="300" as="sourcePoint" />
            <mxPoint x="580" y="300" as="targetPoint" />
          </mxGeometry>
        </mxCell>
        <mxCell id="BiXXx1ukzyLKqdQWHbCL-24" value="RPI USB bus noise" style="edgeLabel;html=1;align=center;verticalAlign=middle;resizable=0;points=[];" vertex="1" connectable="0" parent="BiXXx1ukzyLKqdQWHbCL-23">
          <mxGeometry x="-0.4048" relative="1" as="geometry">
            <mxPoint x="1.17" y="-10" as="offset" />
          </mxGeometry>
        </mxCell>
      </root>
    </mxGraphModel>
  </diagram>
</mxfile>
